<svg width="50" height="50" viewBox="0 0 50 50" fill="none" xmlns="http://www.w3.org/2000/svg">
<circle cx="25" cy="25" r="25" fill="#EBFF00"/>
<path d="M15.085 17.4886C16.0635 17.4886 16.9268 18.3232 16.9268 19.8197C16.9268 23.6761 12.1783 33.8638 6.88299 33.8638C4.55189 33.8638 3.14172 31.9932 3.14172 29.6045C3.14172 26.6115 5.47282 23.5609 8.17804 20.8269C7.28589 20.7118 5.78939 20.165 5.04113 20.165C4.63823 20.165 4.46556 20.3665 4.46556 20.6831C4.46556 21.4025 5.38648 21.6615 5.38648 22.4673C5.38648 22.9566 5.01236 23.4458 4.37922 23.4458C3.8612 23.4458 3.28562 23.0717 3.28562 22.2371C3.28562 21.5752 3.65974 20.7118 4.06265 19.8485C4.75335 18.5534 5.5016 17.6037 6.68154 17.6037C7.5449 17.6037 9.41554 18.0929 10.3652 18.0929C11.1423 18.0929 11.4013 17.7476 11.6603 17.5461L12.351 18.1217C10.135 20.9708 8.2356 24.6258 8.2356 27.4173C8.2356 29.0577 8.83996 30.1801 9.99111 30.1801C12.0344 30.1801 14.4231 26.1798 14.4231 23.158C14.4231 21.3162 13.5021 20.2801 13.5021 19.1865C13.5021 18.2656 14.1353 17.4886 15.085 17.4886ZM21.9049 33.8638C19.027 33.8638 17.0125 31.8493 17.0125 28.2807C17.0125 23.2156 21.0991 17.3735 26.1642 17.3735C28.2651 17.3735 29.8191 18.7261 29.8191 20.8845C29.8191 22.6976 28.7543 24.3955 27.2003 24.3955C26.2218 24.3955 25.6174 23.7624 25.6174 22.899C25.6174 21.5176 27.1715 21.3162 27.1715 19.8772C27.1715 19.2441 26.8837 18.87 26.3081 18.87C24.4375 18.87 22.2791 23.3883 22.2791 27.2734C22.2791 29.2592 22.7395 30.842 24.2648 30.842C25.7037 30.842 27.0851 29.5182 28.2939 27.1871H29.0997C27.4305 31.4464 25.0706 33.8638 21.9049 33.8638ZM46.912 17.4023C48.092 17.4023 48.351 18.1793 48.351 18.6973C48.351 19.9348 47.2286 21.6328 46.0487 21.6328C45.3868 21.6328 44.84 21.4025 44.1493 21.4025C43.2859 21.4025 42.3074 21.7767 40.7533 24.0502L41.185 29.3455C41.3001 30.842 41.703 31.2449 42.1923 31.2449C42.9693 31.2449 44.1493 29.9787 44.9838 28.0792H45.8184C44.6961 31.1874 42.6528 33.835 39.631 33.835C37.5877 33.835 36.235 32.5975 35.9473 29.0002L35.9185 28.5685C34.0766 31.36 31.9182 33.8063 29.9325 33.8063C29.0691 33.8063 28.6374 33.4034 28.6374 32.6839C28.6374 31.2162 29.9325 29.6333 31.0836 29.6333C31.5729 29.6333 32.3211 29.8348 33.0981 29.8348C33.8176 29.8348 34.6522 29.2592 35.8321 27.6188L35.4005 22.4098C35.2566 20.5967 35.1127 20.0787 34.6234 20.0787C33.9615 20.0787 33.1845 21.4601 32.2923 23.2444H31.4577C32.9542 19.4743 34.8824 17.4886 37.4438 17.4886C39.4295 17.4886 40.2929 18.5822 40.5807 22.1796L40.667 23.0429C42.7391 19.7046 44.6961 17.4023 46.912 17.4023Z" fill="black"/>
</svg>
