<svg width="129" height="29" viewBox="0 0 129 29" fill="none" xmlns="http://www.w3.org/2000/svg">
<path d="M43.7807 11.8004C42.949 11.8004 42.2235 11.6733 41.6043 11.4192C40.9898 11.165 40.5092 10.7861 40.1626 10.2824C39.8207 9.77877 39.6405 9.15497 39.622 8.41102H41.7291C41.7568 8.75296 41.8585 9.04176 42.0341 9.27742C42.2096 9.50846 42.4453 9.68174 42.741 9.79726C43.0368 9.91278 43.3764 9.97054 43.7599 9.97054C44.1296 9.97054 44.4507 9.9174 44.7234 9.81112C45.0006 9.70484 45.2132 9.55698 45.361 9.36752C45.5135 9.17345 45.5898 8.94934 45.5898 8.6952C45.5898 8.46416 45.5204 8.27008 45.3818 8.11298C45.2478 7.95587 45.0491 7.82187 44.7857 7.71097C44.527 7.60007 44.2105 7.50072 43.8362 7.41293L42.7064 7.13568C41.8377 6.92774 41.1515 6.59736 40.6478 6.14452C40.1442 5.68706 39.8923 5.07712 39.8923 4.31469C39.8923 3.69088 40.061 3.14562 40.3983 2.67892C40.7402 2.2076 41.2046 1.84256 41.7915 1.5838C42.3829 1.32041 43.0553 1.18872 43.8084 1.18872C44.5755 1.18872 45.2432 1.32041 45.8116 1.5838C46.3845 1.84718 46.8304 2.21222 47.1493 2.67892C47.4727 3.14562 47.6391 3.68395 47.6483 4.29389H45.5482C45.5112 3.89188 45.3379 3.57767 45.0283 3.35125C44.7234 3.12483 44.3098 3.01162 43.7876 3.01162C43.4365 3.01162 43.1361 3.06245 42.8866 3.16411C42.6417 3.26114 42.4546 3.39746 42.3252 3.57305C42.1958 3.74864 42.1311 3.94964 42.1311 4.17606C42.1311 4.41634 42.205 4.61966 42.3529 4.78601C42.5008 4.94773 42.6971 5.08174 42.942 5.18802C43.1916 5.28967 43.4642 5.37516 43.7599 5.44447L44.6818 5.6732C45.13 5.77486 45.5436 5.91117 45.9225 6.08214C46.3014 6.24849 46.6294 6.45411 46.9067 6.69901C47.1886 6.94392 47.4057 7.23272 47.5582 7.56541C47.7107 7.89349 47.7869 8.27239 47.7869 8.70213C47.7869 9.33518 47.6275 9.88505 47.3087 10.3518C46.9945 10.8138 46.5393 11.1719 45.9432 11.4261C45.3472 11.6756 44.6263 11.8004 43.7807 11.8004ZM52.2368 11.8073C51.4559 11.8073 50.7789 11.641 50.2059 11.3083C49.6376 10.9709 49.1986 10.5042 48.889 9.90816C48.584 9.30745 48.4315 8.60971 48.4315 7.81494C48.4315 7.01092 48.584 6.31087 48.889 5.71479C49.1986 5.11408 49.6376 4.64738 50.2059 4.31469C50.7789 3.97737 51.4559 3.80871 52.2368 3.80871C53.0223 3.80871 53.6993 3.97737 54.2676 4.31469C54.8406 4.64738 55.2796 5.11408 55.5845 5.71479C55.8941 6.31087 56.0489 7.01092 56.0489 7.81494C56.0489 8.60971 55.8941 9.30745 55.5845 9.90816C55.2796 10.5042 54.8406 10.9709 54.2676 11.3083C53.6993 11.641 53.0223 11.8073 52.2368 11.8073ZM52.2506 10.13C52.6064 10.13 52.9045 10.0306 53.1448 9.83191C53.385 9.6286 53.5652 9.35135 53.6854 9.00017C53.8102 8.64899 53.8725 8.24929 53.8725 7.80107C53.8725 7.34824 53.8102 6.94854 53.6854 6.60198C53.5652 6.25542 53.385 5.98279 53.1448 5.7841C52.9045 5.5854 52.6064 5.48606 52.2506 5.48606C51.8902 5.48606 51.5875 5.5854 51.3426 5.7841C51.1024 5.98279 50.9198 6.25542 50.7951 6.60198C50.6749 6.94854 50.6149 7.34824 50.6149 7.80107C50.6149 8.24929 50.6749 8.64899 50.7951 9.00017C50.9198 9.35135 51.1024 9.6286 51.3426 9.83191C51.5875 10.0306 51.8902 10.13 52.2506 10.13ZM61.9612 8.3625V3.90574H64.103V11.6548H62.0444V10.2478H61.9612C61.7856 10.696 61.4968 11.061 61.0948 11.3429C60.6928 11.6202 60.2007 11.7565 59.6185 11.7519C59.101 11.7519 58.6435 11.6363 58.2461 11.4053C57.8533 11.1696 57.5461 10.8346 57.3243 10.4003C57.1071 9.96592 56.9985 9.44608 56.9985 8.84075V3.90574H59.1402V8.46647C59.1402 8.91931 59.2627 9.27973 59.5076 9.54773C59.7525 9.81112 60.0783 9.9405 60.4849 9.93588C60.7437 9.93588 60.9839 9.87812 61.2057 9.7626C61.4275 9.64246 61.6077 9.46456 61.7464 9.2289C61.8896 8.99324 61.9612 8.70444 61.9612 8.3625ZM69.4816 3.90574V5.52764H64.8169V3.90574H69.4816ZM65.8774 2.06205H68.0191V9.27049C68.0191 9.52925 68.0769 9.72101 68.1924 9.84577C68.3079 9.96592 68.4927 10.026 68.7469 10.026C68.83 10.026 68.9225 10.0191 69.0241 10.0052C69.1258 9.99133 69.2136 9.97516 69.2875 9.95667L69.6271 11.5647C69.3915 11.634 69.1627 11.6849 68.9409 11.7172C68.7238 11.7495 68.5089 11.7657 68.2963 11.7657C67.5247 11.7657 66.9286 11.574 66.5081 11.1904C66.0876 10.8023 65.8774 10.257 65.8774 9.55466V2.06205ZM72.7254 7.17727V11.6548H70.5836V1.32734H72.6561V5.28505H72.7531C72.9287 4.82759 73.2106 4.46717 73.5987 4.20379C73.9915 3.9404 74.4813 3.80871 75.0681 3.80871C75.6041 3.80871 76.0731 3.92654 76.4751 4.1622C76.8772 4.39324 77.1891 4.72594 77.4109 5.16029C77.6373 5.59464 77.7505 6.11679 77.7505 6.72674V11.6548H75.6018V7.10795C75.6018 6.63201 75.4794 6.26004 75.2345 5.99203C74.9942 5.72403 74.6545 5.59002 74.2156 5.59002C73.9198 5.59002 73.6611 5.65472 73.4393 5.7841C73.2175 5.90886 73.0419 6.08907 72.9125 6.32473C72.7877 6.56039 72.7254 6.84457 72.7254 7.17727ZM83.746 1.32734L86.2343 9.17345H86.3313L88.8335 1.32734H91.2455L87.6898 11.6548H84.8757L81.3131 1.32734H83.746ZM91.9871 11.6548V3.90574H94.1289V11.6548H91.9871ZM93.0545 2.91458C92.7357 2.91458 92.4631 2.80831 92.2367 2.59575C92.0102 2.38319 91.897 2.12674 91.897 1.82639C91.897 1.52604 92.0102 1.27189 92.2367 1.06396C92.4631 0.8514 92.7357 0.745122 93.0545 0.745122C93.378 0.745122 93.6529 0.8514 93.8794 1.06396C94.1058 1.27189 94.219 1.52604 94.219 1.82639C94.219 2.12674 94.1058 2.38319 93.8794 2.59575C93.6529 2.80831 93.378 2.91458 93.0545 2.91458ZM97.539 1.32734V11.6548H95.3973V1.32734H97.539ZM100.949 1.32734V11.6548H98.8074V1.32734H100.949ZM104.422 11.8004C103.932 11.8004 103.491 11.7149 103.098 11.5439C102.71 11.3683 102.405 11.1096 102.183 10.7676C101.961 10.4257 101.85 10.0006 101.85 9.49228C101.85 9.05793 101.929 8.69751 102.086 8.41102C102.243 8.11991 102.458 7.88425 102.73 7.70404C103.003 7.52383 103.313 7.38751 103.659 7.2951C104.006 7.20268 104.373 7.13799 104.761 7.10102C105.21 7.05944 105.57 7.01785 105.843 6.97626C106.115 6.93468 106.314 6.87229 106.439 6.78912C106.568 6.70132 106.633 6.57656 106.633 6.41484V6.38018C106.633 6.06135 106.531 5.81413 106.328 5.63854C106.129 5.46295 105.847 5.37516 105.482 5.37516C105.099 5.37516 104.791 5.46064 104.56 5.63161C104.334 5.79796 104.184 6.01052 104.11 6.26928L102.121 6.10986C102.222 5.63854 102.421 5.23191 102.717 4.88997C103.012 4.54341 103.394 4.27772 103.86 4.09289C104.332 3.90343 104.877 3.80871 105.496 3.80871C105.926 3.80871 106.337 3.85954 106.73 3.96119C107.123 4.06285 107.471 4.21996 107.776 4.43252C108.086 4.64045 108.331 4.91077 108.511 5.24346C108.691 5.57616 108.781 5.97124 108.781 6.4287V11.6548H106.737V10.5735H106.681C106.557 10.8185 106.39 11.0333 106.182 11.2182C105.974 11.3984 105.725 11.5416 105.434 11.6479C105.143 11.7495 104.805 11.8004 104.422 11.8004ZM105.039 10.3171C105.353 10.3171 105.63 10.2547 105.87 10.13C106.115 10.0006 106.305 9.8296 106.439 9.61705C106.577 9.39987 106.647 9.15728 106.647 8.88927V8.06446C106.582 8.10605 106.49 8.14532 106.369 8.18229C106.254 8.21926 106.124 8.2516 105.981 8.27933C105.838 8.30705 105.695 8.33247 105.551 8.35557C105.408 8.37405 105.279 8.39254 105.163 8.41102C104.909 8.44798 104.687 8.50806 104.498 8.59123C104.308 8.66978 104.161 8.77837 104.054 8.917C103.953 9.051 103.902 9.21966 103.902 9.42297C103.902 9.71408 104.008 9.93588 104.221 10.0884C104.433 10.2409 104.706 10.3171 105.039 10.3171ZM113.502 14.7184C112.457 14.7184 111.639 14.5105 111.048 14.0946C110.456 13.6833 110.096 13.1704 109.967 12.5559L111.949 12.2925C112.009 12.4496 112.104 12.5951 112.233 12.7292C112.363 12.8632 112.536 12.9694 112.753 13.048C112.97 13.1312 113.236 13.1727 113.55 13.1727C114.017 13.1727 114.403 13.0595 114.708 12.8331C115.013 12.6113 115.165 12.2347 115.165 11.7033V10.2824H115.075C114.983 10.495 114.842 10.6983 114.652 10.8924C114.463 11.0865 114.22 11.2436 113.924 11.3637C113.629 11.4838 113.275 11.5439 112.864 11.5439C112.282 11.5439 111.753 11.4099 111.277 11.1419C110.805 10.8693 110.426 10.4534 110.14 9.89429C109.858 9.33518 109.717 8.6282 109.717 7.77335C109.717 6.89078 109.86 6.15607 110.147 5.56923C110.438 4.98239 110.822 4.54341 111.297 4.2523C111.773 3.95657 112.296 3.80871 112.864 3.80871C113.298 3.80871 113.661 3.88264 113.952 4.03051C114.248 4.17375 114.488 4.35396 114.673 4.57114C114.858 4.78832 114.996 5.00318 115.089 5.21574H115.172V3.90574H117.286V11.738C117.286 12.3941 117.124 12.944 116.801 13.3876C116.477 13.8312 116.031 14.1639 115.463 14.3857C114.895 14.6075 114.241 14.7184 113.502 14.7184ZM113.543 9.92895C114.061 9.92895 114.46 9.73719 114.742 9.35366C115.029 8.97013 115.172 8.43874 115.172 7.75949C115.172 7.30665 115.107 6.91388 114.978 6.58118C114.853 6.24387 114.671 5.98279 114.43 5.79796C114.19 5.60851 113.894 5.51378 113.543 5.51378C113.192 5.51378 112.894 5.61082 112.649 5.80489C112.409 5.99434 112.226 6.25773 112.101 6.59505C111.977 6.93236 111.914 7.32051 111.914 7.75949C111.914 8.20308 111.977 8.58892 112.101 8.917C112.226 9.24045 112.409 9.48997 112.649 9.66556C112.894 9.84115 113.192 9.92895 113.543 9.92895ZM122.075 11.8073C121.281 11.8073 120.594 11.6456 120.017 11.3221C119.439 10.9987 118.996 10.5389 118.686 9.94281C118.381 9.34211 118.229 8.63282 118.229 7.81494C118.229 7.02016 118.381 6.32242 118.686 5.72172C118.996 5.12101 119.43 4.652 119.989 4.31469C120.553 3.97737 121.214 3.80871 121.971 3.80871C122.484 3.80871 122.963 3.89188 123.406 4.05823C123.85 4.21996 124.238 4.46486 124.571 4.79294C124.903 5.11639 125.162 5.52533 125.347 6.01976C125.532 6.50956 125.624 7.08485 125.624 7.74562V8.32784H119.081V7.00399H124.585L123.586 7.35055C123.586 6.95778 123.526 6.61584 123.406 6.32473C123.286 6.03362 123.106 5.80951 122.866 5.6524C122.63 5.49068 122.337 5.40981 121.985 5.40981C121.634 5.40981 121.336 5.49068 121.091 5.6524C120.851 5.81413 120.666 6.03362 120.537 6.31087C120.407 6.58812 120.343 6.90695 120.343 7.26737V8.20308C120.343 8.62358 120.417 8.984 120.564 9.28435C120.712 9.58008 120.918 9.80881 121.181 9.97054C121.449 10.1276 121.757 10.2062 122.103 10.2062C122.343 10.2062 122.561 10.1715 122.755 10.1022C122.949 10.0329 123.115 9.93126 123.254 9.79726C123.397 9.66325 123.503 9.50153 123.573 9.31207L125.555 9.44377C125.458 9.91971 125.255 10.3356 124.945 10.6914C124.64 11.0426 124.245 11.3175 123.76 11.5162C123.275 11.7103 122.713 11.8073 122.075 11.8073ZM39.9547 28.6548V18.3273H44.0233C44.8042 18.3273 45.4696 18.466 46.0195 18.7432C46.574 19.0205 46.9968 19.4132 47.2879 19.9215C47.5836 20.4252 47.7315 21.019 47.7315 21.7028C47.7315 22.3867 47.5836 22.9759 47.2879 23.4703C46.9922 23.9647 46.5624 24.3436 45.9987 24.607C45.4396 24.8658 44.7626 24.9951 43.9679 24.9951H41.2439V23.2416H43.6144C44.0349 23.2416 44.3814 23.1838 44.654 23.0683C44.9313 22.9528 45.1369 22.7818 45.2709 22.5554C45.4095 22.3289 45.4789 22.0448 45.4789 21.7028C45.4789 21.3563 45.4095 21.0675 45.2709 20.8364C45.1369 20.6008 44.9313 20.4229 44.654 20.3027C44.3768 20.178 44.0279 20.1156 43.6074 20.1156H42.1311V28.6548H39.9547ZM45.6868 28.6548L43.1708 23.9555H45.5274L48.0988 28.6548H45.6868ZM53.7408 25.3625V20.9057H55.8826V28.6548H53.824V27.2478H53.7408C53.5652 27.696 53.2764 28.061 52.8744 28.3429C52.4724 28.6202 51.9803 28.7565 51.3981 28.7519C50.8806 28.7519 50.4231 28.6363 50.0257 28.4053C49.633 28.1696 49.3257 27.8346 49.1039 27.4003C48.8867 26.9659 48.7781 26.4461 48.7781 25.8408V20.9057H50.9198V25.4665C50.9198 25.9193 51.0423 26.2797 51.2872 26.5477C51.5321 26.8111 51.8579 26.9405 52.2645 26.9359C52.5233 26.9359 52.7635 26.8781 52.9853 26.7626C53.2071 26.6425 53.3873 26.4646 53.526 26.2289C53.6692 25.9932 53.7408 25.7044 53.7408 25.3625ZM59.2927 24.1773V28.6548H57.151V20.9057H59.2581V22.2851H59.3343C59.5099 21.8276 59.7895 21.4672 60.173 21.2038C60.5565 20.9404 61.0371 20.8087 61.6147 20.8087C62.1507 20.8087 62.6174 20.9265 63.0148 21.1622C63.4168 21.3979 63.7287 21.7329 63.9505 22.1672C64.1723 22.6016 64.2832 23.1214 64.2832 23.7267V28.6548H62.1414V24.108C62.1414 23.6366 62.019 23.267 61.7741 22.999C61.5292 22.7263 61.1919 22.59 60.7621 22.59C60.4756 22.59 60.2215 22.6547 59.9997 22.7841C59.7779 22.9089 59.6046 23.0891 59.4799 23.3247C59.3551 23.5604 59.2927 23.8446 59.2927 24.1773ZM73.0373 28.7934C72.1224 28.7934 71.3022 28.5855 70.5767 28.1696C69.8512 27.7538 69.2783 27.1507 68.8578 26.3606C68.4373 25.5704 68.227 24.6162 68.227 23.498C68.227 22.3705 68.4373 21.4117 68.8578 20.6216C69.2829 19.8268 69.8582 19.2238 70.5836 18.8125C71.3137 18.3967 72.1316 18.1887 73.0373 18.1887C73.638 18.1887 74.1948 18.2742 74.7077 18.4452C75.2206 18.6115 75.6734 18.8564 76.0662 19.1799C76.4636 19.4987 76.787 19.8915 77.0366 20.3582C77.2861 20.8203 77.4455 21.3493 77.5148 21.9454H75.3107C75.2691 21.6636 75.1859 21.4094 75.0612 21.183C74.941 20.9566 74.7816 20.7648 74.5829 20.6077C74.3889 20.4506 74.1647 20.3305 73.9106 20.2473C73.6611 20.1595 73.3861 20.1156 73.0858 20.1156C72.559 20.1156 72.0946 20.2496 71.6926 20.5176C71.2952 20.781 70.9856 21.1645 70.7638 21.6682C70.5467 22.1672 70.4381 22.7772 70.4381 23.498C70.4381 24.2327 70.549 24.8519 70.7708 25.3556C70.9926 25.8546 71.3022 26.2312 71.6996 26.4854C72.0969 26.7395 72.5567 26.8666 73.0789 26.8666C73.37 26.8666 73.6403 26.8273 73.8898 26.7487C74.1393 26.6702 74.3611 26.557 74.5552 26.4091C74.7493 26.2612 74.911 26.081 75.0404 25.8685C75.1744 25.6513 75.2645 25.4041 75.3107 25.1268H77.5148C77.4594 25.6028 77.3184 26.0602 77.092 26.4992C76.8702 26.9382 76.5676 27.331 76.184 27.6775C75.8005 28.0195 75.3454 28.2921 74.8186 28.4954C74.2918 28.6941 73.698 28.7934 73.0373 28.7934ZM80.7378 18.3273V28.6548H78.5961V18.3273H80.7378ZM86.969 25.3625V20.9057H89.1107V28.6548H87.0521V27.2478H86.969C86.7934 27.696 86.5046 28.061 86.1026 28.3429C85.7006 28.6202 85.2084 28.7565 84.6262 28.7519C84.1087 28.7519 83.6512 28.6363 83.2538 28.4053C82.8611 28.1696 82.5538 27.8346 82.332 27.4003C82.1148 26.9659 82.0062 26.4461 82.0062 25.8408V20.9057H84.148V25.4665C84.148 25.9193 84.2704 26.2797 84.5153 26.5477C84.7602 26.8111 85.086 26.9405 85.4926 26.9359C85.7514 26.9359 85.9917 26.8781 86.2135 26.7626C86.4353 26.6425 86.6155 26.4646 86.7541 26.2289C86.8973 25.9932 86.969 25.7044 86.969 25.3625ZM94.7804 28.7796C94.3645 28.7796 94.0111 28.7103 93.7199 28.5716C93.4288 28.433 93.1909 28.2597 93.006 28.0518C92.8258 27.8392 92.6849 27.6267 92.5832 27.4141H92.4862V28.6548H90.3791V18.3273H92.5208V22.2157H92.5832C92.6803 22.0032 92.8189 21.7883 92.9991 21.5711C93.1793 21.354 93.415 21.1738 93.7061 21.0305C93.9972 20.8826 94.3576 20.8087 94.7873 20.8087C95.3557 20.8087 95.8755 20.9566 96.3469 21.2523C96.8228 21.5434 97.204 21.9847 97.4905 22.5762C97.777 23.1676 97.9202 23.907 97.9202 24.7941C97.9202 25.6536 97.7816 26.3814 97.5044 26.9775C97.2271 27.5689 96.8505 28.0171 96.3746 28.3221C95.9033 28.6271 95.3719 28.7796 94.7804 28.7796ZM94.1012 27.0745C94.4523 27.0745 94.7481 26.9775 94.9884 26.7834C95.2286 26.5893 95.4112 26.3213 95.5359 25.9794C95.6607 25.6328 95.7231 25.2354 95.7231 24.7872C95.7231 24.339 95.6607 23.9462 95.5359 23.6089C95.4158 23.267 95.2356 22.999 94.9953 22.8049C94.755 22.6108 94.457 22.5138 94.1012 22.5138C93.7546 22.5138 93.4589 22.6085 93.214 22.798C92.9737 22.9828 92.7889 23.2462 92.6595 23.5881C92.5347 23.9254 92.4723 24.3251 92.4723 24.7872C92.4723 25.2447 92.537 25.6444 92.6664 25.9863C92.7958 26.3282 92.9806 26.5963 93.2209 26.7903C93.4658 26.9798 93.7592 27.0745 94.1012 27.0745Z" fill="#3F3F3F"/>
<path d="M6.45546 24.102H1.1035C0.810831 24.102 0.530152 23.9861 0.323207 23.7797C0.116261 23.5734 0 23.2936 0 23.0018C0 22.7101 0.116261 22.4302 0.323207 22.2239C0.530152 22.0176 0.810831 21.9017 1.1035 21.9017H6.45546C6.74812 21.9017 7.0288 22.0176 7.23574 22.2239C7.44269 22.4302 7.55895 22.7101 7.55895 23.0018C7.55895 23.2936 7.44269 23.5734 7.23574 23.7797C7.0288 23.9861 6.74812 24.102 6.45546 24.102ZM10.8694 26.3023H3.31049C3.01782 26.3023 2.73715 26.4182 2.5302 26.6245C2.32325 26.8308 2.20699 27.1106 2.20699 27.4024C2.20699 27.6942 2.32325 27.974 2.5302 28.1803C2.73715 28.3866 3.01782 28.5025 3.31049 28.5025H10.8694C11.1621 28.5025 11.4428 28.3866 11.6497 28.1803C11.8567 27.974 11.9729 27.6942 11.9729 27.4024C11.9729 27.1106 11.8567 26.8308 11.6497 26.6245C11.4428 26.4182 11.1621 26.3023 10.8694 26.3023ZM28.575 21.7133L24.6259 19.7454C23.5236 19.2005 22.5966 18.3585 21.9498 17.3151C21.303 16.2716 20.9623 15.0684 20.9664 13.8418V9.80014C20.9664 9.51002 20.8515 9.23165 20.6466 9.02561C20.4418 8.81956 20.1636 8.70254 19.8726 8.7C18.1172 8.70073 16.4331 8.00715 15.19 6.77145C13.9469 5.53575 13.2463 3.85887 13.242 2.10878C13.2436 1.9033 13.1874 1.70147 13.0799 1.52617C12.9724 1.35087 12.8177 1.2091 12.6335 1.11691C12.4493 1.02473 12.2429 0.985825 12.0377 1.0046C11.8324 1.02338 11.6365 1.0991 11.4722 1.22316L2.91185 7.69337C2.84943 7.74086 2.79789 7.80109 2.76069 7.87004C2.72348 7.93898 2.70147 8.01505 2.69611 8.09315C2.69076 8.17126 2.70219 8.2496 2.72964 8.32295C2.75709 8.3963 2.79993 8.46296 2.8553 8.51847L9.95078 15.5924C10.1542 15.7897 10.2757 16.0562 10.2911 16.3388C10.3064 16.6214 10.2145 16.8994 10.0335 17.1175C9.93441 17.2319 9.81268 17.3247 9.67595 17.3902C9.53921 17.4556 9.39042 17.4923 9.23884 17.4978C9.08727 17.5034 8.93618 17.4777 8.795 17.4224C8.65382 17.3672 8.52558 17.2835 8.4183 17.1766L1.10763 9.88815C1.04536 9.82579 0.96899 9.77924 0.884934 9.7524C0.800878 9.72557 0.711591 9.71922 0.624567 9.73391C0.537544 9.74859 0.455324 9.78387 0.384809 9.8368C0.314294 9.88972 0.257543 9.95873 0.21932 10.038C0.0222154 10.4487 -0.0422397 10.9103 0.0348408 11.3591C0.111921 11.8078 0.326741 12.2217 0.649683 12.5436L16.3317 28.1807C16.4343 28.2829 16.556 28.3639 16.69 28.4191C16.824 28.4743 16.9675 28.5026 17.1125 28.5025H27.5874C28.1727 28.5025 28.7341 28.2707 29.148 27.8581C29.5619 27.4455 29.7944 26.8858 29.7944 26.3023V23.6812C29.7957 23.2724 29.6822 22.8714 29.4667 22.5236C29.2512 22.1758 28.9423 21.8951 28.575 21.7133Z" fill="#3F3F3F"/>
</svg>
